<svg width="100" height="60" viewBox="0 0 100 60" fill="none" xmlns="http://www.w3.org/2000/svg"><path fill="#519999" d="M0 0h100v60H0z"/><path d="M38.165 10.088c-3.855 0-6.981 3.11-6.981 6.945v15.112c0 3.835 3.126 6.945 6.98 6.945 3.856 0 6.982-3.108 6.982-6.945V17.033c0-3.835-3.124-6.945-6.981-6.945zm3.76 22.057c0 2.066-1.683 3.739-3.758 3.739-2.077 0-3.76-1.673-3.76-3.739V17.033c0-2.064 1.683-3.74 3.758-3.74 2.077 0 3.76 1.675 3.76 3.74v15.112zM18.527 49.904c-.209 0-.48-.107-.564-.275l-.947-3.437-.947 3.437c-.186.368-.995.298-1.082-.099l-.978-4.428a.837.837 0 0 1-.009-.118c0-.255.235-.461.528-.461.252 0 .535.156.582.374l.644 2.917.75-3.04c.169-.334.854-.334 1.023 0l.75 3.04.643-2.917c.047-.218.266-.374.518-.374.29 0 .594.206.594.46 0 .03-.003.091-.01.12l-.977 4.427c-.047.218-.266.374-.518.374zm20.367 0c-.209 0-.48-.107-.563-.275l-.948-3.437-.947 3.437c-.186.368-.995.298-1.082-.098l-.977-4.428a.836.836 0 0 1-.01-.12c0-.254.236-.46.528-.46.252 0 .535.157.583.374l.643 2.917.75-3.04c.169-.334.854-.334 1.023 0l.75 3.04.643-2.917c.048-.217.266-.374.518-.374.29 0 .595.206.595.46 0 .03-.004.091-.01.12l-.978 4.428c-.047.217-.263.373-.518.373zM22.633 50c-1.27 0-2.09-.8-2.09-2.041v-1.492c0-1.239.82-2.041 2.09-2.041s2.09.8 2.09 2.041v1.492c0 1.238-.82 2.04-2.09 2.04zm0-4.589c-.501 0-1.1.184-1.1 1.056v1.492c0 .872.599 1.055 1.1 1.055.503 0 1.1-.183 1.1-1.055v-1.492c0-.872-.6-1.056-1.1-1.056zm6.284 4.493c-.161 0-.368-.083-.453-.22l-1.037-1.692h-1.046v1.452a.46.46 0 0 1-.463.46c-.256 0-.527-.205-.527-.46v-4.46c0-.255.207-.461.463-.461h1.786c.977 0 1.636.697 1.636 1.735 0 .705-.304 1.256-.81 1.537l.844 1.379a.446.446 0 0 1 .069.24c.002.252-.205.49-.462.49zm-2.536-2.896h1.26c.43 0 .646-.253.646-.75 0-.498-.216-.75-.645-.75h-1.26v1.5zm6.969 2.896c-.145 0-.339-.068-.426-.183l-1.532-2.02h-.378v1.745c0 .255-.207.46-.463.46s-.528-.205-.528-.46v-4.46c0-.255.207-.461.464-.461.256 0 .527.206.527.46v1.732h.365l1.469-2.003c.237-.323.894-.13.894.272a.57.57 0 0 1-.09.304l-1.404 1.914 1.47 1.932c.06.081.094.177.094.278.002.253-.205.49-.461.49zm10.681 0h-2.614a.461.461 0 0 1-.463-.46v-4.46c0-.255.207-.461.463-.461h2.614c.256 0 .463.206.463.46 0 .256-.207.526-.463.526h-2.088v1.193h1.78c.257 0 .464.206.464.46 0 .256-.207.526-.463.526h-1.781v1.233h2.088c.256 0 .463.206.463.46 0 .253-.207.523-.463.523zm5.221 0c-.186 0-.414-.111-.484-.283l-.465-1.107h-1.885l-.457 1.105c-.17.408-.951.263-.95-.175v-.033c0-.06.012-.12.035-.177l1.852-4.43c.145-.343.788-.343.932 0l1.853 4.43a.475.475 0 0 1 .034.177c-.002.255-.209.493-.465.493zm-2.424-2.373h1.065l-.53-1.277-.535 1.277zm6.972 2.373c-.161 0-.368-.083-.453-.22l-1.037-1.692h-1.046v1.452c0 .255-.207.46-.463.46s-.528-.205-.528-.46v-4.46c0-.255.207-.461.464-.461h1.786c.98 0 1.636.697 1.636 1.735 0 .705-.304 1.256-.81 1.537l.844 1.379a.446.446 0 0 1 .068.24c.002.252-.205.49-.46.49zm-2.536-2.896h1.26c.428 0 .646-.253.646-.75 0-.498-.216-.75-.645-.75h-1.26v1.5zm5.904 2.896c-.256 0-.527-.205-.527-.46v-4.46a.46.46 0 0 1 .463-.461h2.614c.256 0 .463.206.463.46 0 .256-.207.526-.463.526H57.63v1.193h1.78c.256 0 .463.206.463.46 0 .256-.207.526-.463.526h-1.78v1.758a.458.458 0 0 1-.462.459zm5.527.096c-1.27 0-2.09-.8-2.09-2.041v-1.492c0-1.239.82-2.041 2.09-2.041s2.09.8 2.09 2.041v1.492c0 1.238-.82 2.04-2.09 2.04zm0-4.589c-.5 0-1.099.184-1.099 1.056v1.492c0 .872.598 1.055 1.1 1.055.502 0 1.1-.183 1.1-1.055v-1.492c0-.872-.598-1.056-1.1-1.056zm6.179 4.493c-.16 0-.368-.083-.453-.22l-1.037-1.692h-1.046v1.452a.46.46 0 0 1-.463.46c-.256 0-.527-.205-.527-.46v-4.46c0-.255.207-.461.463-.461h1.786c.98 0 1.636.697 1.636 1.735 0 .705-.304 1.256-.81 1.537l.844 1.379a.445.445 0 0 1 .069.24c.002.252-.207.49-.462.49zm-2.535-2.896h1.26c.429 0 .645-.253.645-.75 0-.498-.216-.75-.645-.75h-1.26v1.5zm8.552 2.896h-2.69a.461.461 0 0 1-.463-.46v-4.46c0-.255.207-.461.463-.461.257 0 .528.206.528.46v3.938h2.164c.256 0 .463.206.463.46-.002.253-.209.523-.465.523zm1.473 0c-.257 0-.528-.205-.528-.46v-4.46c0-.255.207-.461.463-.461s.528.206.528.46v4.46a.462.462 0 0 1-.463.462zm2.034 0c-.256 0-.528-.205-.528-.46v-4.46c0-.255.207-.461.463-.461h2.614c.256 0 .463.206.463.46 0 .256-.207.526-.463.526h-2.088v1.193h1.78c.257 0 .464.206.464.46 0 .256-.207.526-.463.526h-1.781v1.758a.458.458 0 0 1-.461.459zm6.726 0H82.51a.461.461 0 0 1-.463-.46v-4.46c0-.255.207-.461.463-.461h2.614c.256 0 .463.206.463.46 0 .256-.207.526-.463.526h-2.088v1.193h1.78a.46.46 0 0 1 .463.46c0 .256-.206.526-.463.526h-1.78v1.233h2.088c.256 0 .463.206.463.46 0 .253-.207.523-.463.523zM60.722 30.542c-.89 0-1.611.717-1.611 1.603 0 2.064-1.684 3.739-3.759 3.739-2.076 0-3.76-1.675-3.76-3.739V17.033c0-2.064 1.684-3.74 3.758-3.74 2.077 0 3.76 1.675 3.76 3.74 0 .886.722 1.604 1.612 1.604.89 0 1.612-.718 1.612-1.604 0-3.835-3.126-6.945-6.982-6.945-3.855 0-6.98 3.11-6.98 6.945v15.112c0 3.835 3.125 6.945 6.98 6.945 3.856 0 6.982-3.108 6.982-6.945 0-.886-.722-1.603-1.612-1.603zM76.36 19.679a3.726 3.726 0 0 1-1.102-2.646c0-2.064 1.684-3.738 3.758-3.738 2.075 0 3.76 1.675 3.76 3.738 0 .886.722 1.604 1.612 1.604.89 0 1.612-.718 1.612-1.604 0-3.835-3.126-6.945-6.982-6.945-3.855 0-6.98 3.11-6.98 6.945 0 1.919.781 3.654 2.043 4.912l7.595 7.555c.68.676 1.1 1.61 1.1 2.643 0 2.066-1.683 3.739-3.758 3.739-2.076 0-3.76-1.673-3.76-3.739 0-.886-.721-1.601-1.611-1.601s-1.612.717-1.612 1.601c.002 3.835 3.126 6.943 6.981 6.943 3.856 0 6.982-3.108 6.982-6.945a6.91 6.91 0 0 0-2.044-4.911l-7.595-7.551zm-55.379-9.591h-5.37c-.89 0-1.611.718-1.611 1.604v25.795c0 .886.721 1.603 1.611 1.603h5.37c3.855 0 6.982-3.11 6.982-6.945V17.033c0-3.835-3.125-6.943-6.982-6.945zm3.759 22.057a3.75 3.75 0 0 1-3.759 3.74h-3.758V13.294h3.758c2.077 0 3.76 1.675 3.76 3.74l-.001 15.112zM63.923 18.16a1.684 1.684 0 0 1 0-2.388l5.305-5.278a1.705 1.705 0 0 1 2.401 0c.662.66.662 1.73 0 2.389l-5.305 5.277a1.705 1.705 0 0 1-2.401 0z" fill="#fff"/></svg>